# xmcd CD database file generated by OrangeCD 5.2
#
# Track frame offsets:
#	150
#	20412
#	36966
#	53847
#	70896
#	94673
#	109910
#	125997
#	145025
#	162525
#	180405
#	199069
#	217558
#
# Disc length: 3162 seconds
#
# Revision: 0
# Processed by: cddbd v1.5.2PL0 Copyright (c) Steve Scherf et al.
# Submitted via: OrangeCD 5.2
#
DISCID=b60c580d
DTITLE=Tim McGraw - Let it go
DYEAR=2007
DGENRE=Country
TTITLE0=Last dollar (fly away)
TTITLE1=I'm workin'
TTITLE2=Let it go
TTITLE3=Whiskey and you
TTITLE4=Suspicions
TTITLE5=Kristofferson
TTITLE6=Put your lovin' on me
TTITLE7=Nothin' to die for
TTITLE8=Between the river and me
TTITLE9=Train 10
TTITLE10=I need you (with Faith Hill)
TTITLE11=Comin' home
TTITLE12=Shotgun rider
EXTD=
EXTT0=
EXTT1=
EXTT2=
EXTT3=
EXTT4=
EXTT5=
EXTT6=
EXTT7=
EXTT8=
EXTT9=
EXTT10=
EXTT11=
EXTT12=
PLAYORDER=
